<svg xmlns="http://www.w3.org/2000/svg" viewBox="0 0 64 64" width="64" height="64">
  <defs>
    <radialGradient id="face" cx="38%" cy="38%" r="62%">
      <stop offset="0%" stop-color="#ffffff" stop-opacity="0.96"/>
      <stop offset="42%" stop-color="#f0f5ff" stop-opacity="0.88"/>
      <stop offset="100%" stop-color="#d2e3f5" stop-opacity="0.7"/>
    </radialGradient>
    <linearGradient id="hour" x1="0" y1="1" x2="0" y2="0">
      <stop offset="0%" stop-color="#645078" stop-opacity="0.75"/>
      <stop offset="100%" stop-color="#8c6ea0" stop-opacity="0.55"/>
    </linearGradient>
    <linearGradient id="minute" x1="0" y1="1" x2="0" y2="0">
      <stop offset="0%" stop-color="#645078" stop-opacity="0.65"/>
      <stop offset="100%" stop-color="#8c6ea0" stop-opacity="0.45"/>
    </linearGradient>
    <linearGradient id="second" x1="0" y1="1" x2="0" y2="0">
      <stop offset="0%" stop-color="#f85a4e" stop-opacity="0.8"/>
      <stop offset="100%" stop-color="#f85a4e" stop-opacity="0.3"/>
    </linearGradient>
    <radialGradient id="cap" cx="50%" cy="50%" r="50%">
      <stop offset="0%" stop-color="#f85a4e"/>
      <stop offset="100%" stop-color="#f85a4e" stop-opacity="0.6"/>
    </radialGradient>
  </defs>
  <circle cx="32" cy="32" r="28" fill="url(#face)" stroke="rgba(255,255,255,0.6)" stroke-width="1"/>
  <circle cx="32" cy="32" r="23" fill="none" stroke="rgba(160,180,210,0.3)" stroke-width="1"/>
  <g fill="rgba(120,100,140,0.5)">
    <rect x="31.25" y="9" width="1.5" height="5" rx="0.75"/>
    <rect x="31.25" y="50" width="1.5" height="5" rx="0.75"/>
    <rect x="9" y="31.25" width="5" height="1.5" rx="0.75"/>
    <rect x="50" y="31.25" width="5" height="1.5" rx="0.75"/>
  </g>
  <g stroke-linecap="round">
    <rect x="31.375" y="20" width="1.25" height="13" rx="0.6" fill="url(#hour)" transform="rotate(40 32 32)"/>
    <rect x="31.625" y="14" width="0.75" height="19" rx="0.4" fill="url(#minute)" transform="rotate(220 32 32)"/>
    <rect x="31.75" y="11" width="0.5" height="22" rx="0.25" fill="url(#second)" transform="rotate(95 32 32)"/>
  </g>
  <circle cx="32" cy="32" r="2" fill="url(#cap)"/>
</svg>